<?xml version="1.0" encoding="utf-8"?>
<!-- Generator: Adobe Illustrator 23.0.1, SVG Export Plug-In . SVG Version: 6.00 Build 0)  -->
<svg version="1.1" id="Layer_1" xmlns="http://www.w3.org/2000/svg" xmlns:xlink="http://www.w3.org/1999/xlink" x="0px" y="0px"
	 viewBox="0 0 605.88 429.41" style="enable-background:new 0 0 605.88 429.41;" xml:space="preserve">
<style type="text/css">
	.st0{fill:#1F2229;}
</style>
<g>
	<g>
		<g>
			<path class="st0" d="M546.71,223.21c-4.09-4.57-102.58-111.99-225.94-111.99S98.92,218.64,94.82,223.21
				c-4.57,5.11-4.57,12.82,0,17.93c4.1,4.57,102.59,111.99,225.94,111.99s221.85-107.42,225.94-111.99
				C551.28,236.04,551.28,228.32,546.71,223.21z M320.76,326.25c-51.87,0-94.08-42.21-94.08-94.08s42.21-94.08,94.08-94.08
				s94.08,42.21,94.08,94.08S372.63,326.25,320.76,326.25z"/>
		</g>
	</g>
	<g>
		<g>
			<path class="st0" d="M334.2,205.3c0-13.52,6.71-25.41,16.92-32.73c-9.16-4.69-19.38-7.59-30.36-7.59
				c-37.05,0-67.2,30.15-67.2,67.2s30.15,67.2,67.2,67.2c33.17,0,60.63-24.22,66.05-55.87C359.75,252.22,334.2,231.75,334.2,205.3z"
				/>
		</g>
	</g>
</g>
</svg>
