<svg width="28" height="28" viewBox="0 0 28 28" fill="none" xmlns="http://www.w3.org/2000/svg">
<path d="M14 0.368164C6.26667 0.368164 0 6.55237 0 14.184C0 21.8155 6.26667 27.9997 14 27.9997C21.7333 27.9997 28 21.8155 28 14.184C28 6.55237 21.7333 0.368164 14 0.368164ZM14 27.3419C6.66667 27.3419 0.666667 21.4208 0.666667 14.184C0.666667 6.94711 6.66667 1.02606 14 1.02606C21.3333 1.02606 27.3333 6.94711 27.3333 14.184C27.3333 21.4866 21.3333 27.3419 14 27.3419Z" fill="#1F2229"/>
<g clip-path="url(#clip0)">
<path d="M14.1333 2.34192C7.53334 2.27613 2.06667 7.53929 2.00001 14.0524C1.93334 20.5656 7.26667 25.9603 13.8667 26.0261C20.4667 26.0919 25.9333 20.8288 26 14.3156C26.0667 7.80244 20.7333 2.40771 14.1333 2.34192ZM13.9333 21.8156C12.9333 21.8156 12.1333 20.9603 12.1333 19.9735L15.8 20.0393C15.7333 21.0261 14.9333 21.8814 13.9333 21.8156ZM20.1333 18.3288C20.1333 18.9867 19.6 19.0524 18.9333 19.0524L9.06667 18.9209C8.40001 18.9209 7.86667 18.8551 7.86667 18.1972V18.0656C7.86667 17.6051 8.13334 17.2103 8.60001 17.013L9.00001 13.7235C9.00001 11.2893 10.8 9.3156 13.0667 8.85508V7.60508C13.0667 7.01297 13.5333 6.55245 14.1333 6.61824C14.7333 6.61824 15.2 7.07876 15.1333 7.67087V8.92087C17.4 9.44718 19.1333 11.4209 19.1333 13.8551L19.4667 17.1446C19.8667 17.3419 20.1333 17.7367 20.1333 18.263V18.3288Z" fill="#1F2229"/>
</g>
<defs>
<clipPath id="clip0">
<rect width="27.6324" height="28" fill="white"/>
</clipPath>
</defs>
</svg>
