<svg id="Layer_1" data-name="Layer 1" xmlns="http://www.w3.org/2000/svg" viewBox="0 0 381.45 384.94"><defs><style>.cls-1{fill:#010101;}</style></defs><title>voronka</title><path class="cls-1" d="M475.82,33.75H130.08A17.82,17.82,0,0,0,117,63.65l140.12,152a23.77,23.77,0,0,1,6.26,16.08v175a11.89,11.89,0,0,0,20.23,8.47l48.84-56c6.53-7.84,10.13-11.72,10.13-19.48V286.62a93.24,93.24,0,1,1,90.39-162.21l56-60.76C499.42,52.24,491.35,33.75,475.82,33.75Z" transform="translate(-112.22 -33.75)"/><path class="cls-1" d="M412.79,142.73l-.07,0q-2-1.11-4.11-2.09l-.15-.08c-1.38-.63-2.77-1.23-4.2-1.77l-.23-.09q-2.11-.81-4.29-1.47l-.29-.08c-.66-.2-1.32-.39-2-.56l-.21-.06c-.72-.19-1.45-.37-2.18-.53l-.34-.08-1.89-.38-.41-.08c-.72-.13-1.44-.26-2.17-.37l-.34,0-1.89-.25-.52-.06c-.73-.08-1.46-.15-2.2-.2l-.25,0-2-.11-.58,0c-.75,0-1.49,0-2.24,0a67,67,0,0,0-67,67c0,.71,0,1.42,0,2.13,0,.21,0,.41,0,.61,0,.55,0,1.11.09,1.66l0,.51c0,.7.11,1.4.18,2.09,0,.14,0,.27.05.41.06.57.13,1.14.21,1.7,0,.2,0,.4.08.59.09.61.19,1.21.29,1.81,0,.09,0,.17,0,.26.12.68.26,1.36.4,2,0,.17.07.34.11.51.12.53.24,1.06.37,1.59l.12.51c.17.67.35,1.34.53,2l0,.14c.17.62.36,1.23.56,1.83.05.17.1.34.16.5.18.56.37,1.11.56,1.65,0,.11.08.21.11.32.24.65.48,1.29.74,1.93a3.45,3.45,0,0,0,.14.34c.21.54.44,1.07.67,1.6.06.14.12.28.19.42.56,1.27,1.16,2.51,1.79,3.73l.19.36c.28.53.56,1.05.86,1.57.05.09.09.18.15.27.35.62.7,1.22,1.07,1.83l0,.06c.35.57.71,1.13,1.07,1.68l.2.3c.77,1.17,1.58,2.32,2.43,3.44l.13.17c.39.51.79,1,1.19,1.52.06.06.11.13.16.19.89,1.1,1.82,2.17,2.78,3.21.06.06.11.12.17.17.47.51.95,1,1.44,1.51h0c1,1,2.07,2,3.15,3l.14.12q1.62,1.43,3.33,2.76l.09.06c.56.44,1.13.86,1.71,1.28l0,0c1.19.86,2.4,1.67,3.64,2.45l.12.07a67,67,0,1,0,67.93-115.51Zm7.13,82.6a10.92,10.92,0,1,1-15.45,15.45l-24.22-24.22L356,240.78a10.92,10.92,0,1,1-15.45-15.45l24-24-24-24A10.93,10.93,0,1,1,356,161.87l24.24,24.24,24.24-24.24a10.93,10.93,0,0,1,15.45,15.46l-24,24Z" transform="translate(-112.22 -33.75)"/></svg>