<?xml version="1.0" encoding="utf-8"?>
<!-- Generator: Adobe Illustrator 23.0.1, SVG Export Plug-In . SVG Version: 6.00 Build 0)  -->
<svg version="1.1" id="Layer_1" xmlns="http://www.w3.org/2000/svg" xmlns:xlink="http://www.w3.org/1999/xlink" x="0px" y="0px"
	 viewBox="0 0 605.88 429.41" style="enable-background:new 0 0 605.88 429.41;" xml:space="preserve">
<style type="text/css">
	.st0{fill:#4E4E4E;}
</style>
<g>
	<g>
		<path class="st0" d="M305.07,130.74V123c0-4.28-3.47-7.75-7.75-7.75H189.33c-4.28,0-7.75,3.47-7.75,7.75v7.75
			c0,4.28,3.47,7.75,7.75,7.75h107.99C301.6,138.49,305.07,135.02,305.07,130.74z"/>
		<path class="st0" d="M282.77,164.07h-93.44c-4.28,0-7.75,3.47-7.75,7.75v7.75c0,4.28,3.47,7.75,7.75,7.75h93.44
			c4.28,0,7.75-3.47,7.75-7.75v-7.75C290.52,167.53,287.05,164.07,282.77,164.07z"/>
		<path class="st0" d="M268.22,212.88h-78.89c-4.28,0-7.75,3.47-7.75,7.75v7.75c0,4.28,3.47,7.75,7.75,7.75h78.89
			c4.28,0,7.75-3.47,7.75-7.75v-7.75C275.97,216.35,272.5,212.88,268.22,212.88z"/>
		<path class="st0" d="M253.67,267.13h-64.34c-4.28,0-7.75,3.47-7.75,7.75v7.75c0,4.28,3.47,7.75,7.75,7.75h64.34
			c4.28,0,7.75-3.47,7.75-7.75v-7.75C261.42,270.6,257.95,267.13,253.67,267.13z"/>
		<path class="st0" d="M239.11,315.94h-49.78c-4.28,0-7.75,3.47-7.75,7.75v7.75c0,4.28,3.47,7.75,7.75,7.75h49.78
			c4.28,0,7.75-3.47,7.75-7.75v-7.75C246.86,319.41,243.39,315.94,239.11,315.94z"/>
		<path class="st0" d="M412.73,280.41l-5.48-5.48c-1.45-1.45-3.42-2.27-5.48-2.27c-2.06,0-4.03,0.82-5.48,2.27l-26.65,26.65V126.87
			c0-4.28-3.47-7.75-7.75-7.75h-7.75c-4.28,0-7.75,3.47-7.75,7.75v174.71l-26.65-26.65c-1.45-1.45-3.42-2.27-5.48-2.27
			s-4.03,0.82-5.48,2.27l-5.48,5.48c-3.03,3.03-3.03,7.93,0,10.96l49.23,49.23c1.51,1.51,3.5,2.27,5.48,2.27
			c1.98,0,3.97-0.76,5.48-2.27l49.23-49.23C415.75,288.34,415.75,283.43,412.73,280.41z"/>
	</g>
</g>
</svg>
