<svg width="20" height="20" viewBox="0 0 20 20" fill="none" xmlns="http://www.w3.org/2000/svg">
<g clip-path="url(#clip0)">
<path d="M19.3412 10C19.3412 15.1397 15.2309 19.25 10.0912 19.25C4.95309 19.25 0.841156 15.0454 0.841156 10C0.841156 4.86029 4.95145 0.75 10.0912 0.75C15.1365 0.75 19.3412 4.86193 19.3412 10Z" stroke="#999999" stroke-width="0.5"/>
<path fill-rule="evenodd" clip-rule="evenodd" d="M10.0912 18.0615C14.5053 18.0615 18.1518 14.511 18.1518 10.0009C18.1518 5.49083 14.5053 1.84437 10.0912 1.94033C5.67701 1.94033 2.03055 5.49083 2.03055 10.0009C2.03055 14.4151 5.58105 18.0615 10.0912 18.0615ZM12.1063 14.1273C12.0103 13.9353 11.9144 13.7434 11.9144 13.5515C11.9144 13.3596 12.0103 13.1677 12.1063 12.9758C12.2982 12.8798 12.4901 12.7838 12.6821 12.7838C12.874 12.7838 13.0659 12.7838 13.2578 12.9758C13.3538 13.1677 13.4497 13.3596 13.4497 13.5515C13.4497 13.7434 13.4497 13.9353 13.2578 14.1273C13.0659 14.2232 12.874 14.3192 12.6821 14.3192C12.4901 14.3192 12.2982 14.3192 12.1063 14.1273ZM7.11641 12.7838C7.30833 12.7838 7.50025 12.7838 7.69216 12.9758C7.78812 13.1677 7.88408 13.3596 7.88408 13.5515C7.88408 13.7434 7.88408 13.9353 7.69216 14.1273C7.50025 14.2232 7.30833 14.3192 7.11641 14.3192C6.92449 14.3192 6.73257 14.3192 6.54065 14.1273C6.44469 13.9353 6.34873 13.7434 6.34873 13.5515C6.34873 13.3596 6.44469 13.1677 6.54065 12.9758C6.73257 12.8798 6.92449 12.7838 7.11641 12.7838ZM7.11641 12.7838L12.6821 12.7838L12.6821 12.7838H13.0659C13.1619 12.7838 13.2578 12.7838 13.3538 12.6879C13.4497 12.5919 13.4497 12.496 13.4497 12.4C13.4497 12.304 13.4497 12.2081 13.3538 12.1121C13.3538 12.0162 13.2578 12.0162 13.1619 12.0162H7.40429C7.44094 11.9428 7.47759 11.8835 7.5089 11.8329C7.55955 11.7509 7.5962 11.6916 7.5962 11.6323V11.5364V11.3444V11.2485L14.1215 10.4808C14.1694 10.4808 14.2174 10.4568 14.2654 10.4328C14.3134 10.4088 14.3614 10.3848 14.4093 10.3848C14.5053 10.2889 14.5053 10.1929 14.5053 10.097V6.83434C14.4242 6.75322 14.3773 6.68925 14.3431 6.64242C14.2962 6.57844 14.2728 6.54646 14.2174 6.54646C14.1215 6.4505 14.0255 6.4505 13.9295 6.4505H6.44469V6.25858V6.06666V5.87474C6.44469 5.82676 6.4207 5.80277 6.39671 5.77878C6.37272 5.75479 6.34873 5.7308 6.34873 5.68282L6.25277 5.58686H6.06085H4.33358C4.23762 5.58686 4.14166 5.58686 4.0457 5.68282C3.94974 5.77878 3.94974 5.87474 3.94974 5.9707C3.94974 6.06666 3.94974 6.16262 4.0457 6.25858C4.14166 6.35454 4.23762 6.35454 4.33358 6.35454H5.58105L6.73257 11.5364C6.73257 11.5364 6.63661 11.6323 6.63661 11.7283C6.58863 11.7763 6.56464 11.8482 6.54065 11.9202C6.51666 11.9922 6.49267 12.0641 6.44469 12.1121C6.34873 12.2081 6.34873 12.304 6.34873 12.4C6.34873 12.496 6.34873 12.5919 6.44469 12.6879C6.54065 12.7838 6.63661 12.7838 6.73257 12.7838H7.11641Z" fill="#999999"/>
</g>
<defs>
<clipPath id="clip0">
<rect x="0.591156" y="0.5" width="19" height="19" fill="white"/>
</clipPath>
</defs>
</svg>
